# xmcd
#
# Track frame offsets:
#	150
#	15138
#	32402
#	49941
#	66591
#	81688
#	101095
#	114062
#	133762
#	153311
#	172539
#	202049
#	219697
#
# Disc length: 3138 seconds
#
# Revision: 0
# Processed by: cddbd v1.5.2PL0 Copyright (c) Steve Scherf et al.
# Submitted via: EZCDAudioConverter 3.0.8.1
#
DISCID=ab0c400d
DTITLE=Little Texas    - Young For A Long Time
DYEAR=2015
DGENRE=Country
TTITLE0=Young For A Long Time
TTITLE1=Can't Get In A Hurry Here
TTITLE2=Why I Brought My Boots
TTITLE3=Slow Ride Home
TTITLE4=Rednecks Do Exist
TTITLE5=Kings Of This Town
TTITLE6=Yeah Yeah Yeah
TTITLE7=Take This Walk With Me
TTITLE8=Nothin' You Can Do
TTITLE9=How Many Chances
TTITLE10=This Hot In Texas
TTITLE11=What Might Have Been
TTITLE12=God Blessed Texas
EXTD=
EXTT0=
EXTT1=
EXTT2=
EXTT3=
EXTT4=
EXTT5=
EXTT6=
EXTT7=
EXTT8=
EXTT9=
EXTT10=
EXTT11=
EXTT12=
PLAYORDER=
